<svg xmlns="http://www.w3.org/2000/svg" xmlns:xlink="http://www.w3.org/1999/xlink" width="300" zoomAndPan="magnify" viewBox="0 0 224.87999 225" height="300" preserveAspectRatio="xMidYMid meet" version="1.0"><defs><g/><clipPath id="7a4676d17a"><path d="M 0 0.0585938 L 224.761719 0.0585938 L 224.761719 224.9375 L 0 224.9375 Z M 0 0.0585938 " clip-rule="nonzero"/></clipPath><clipPath id="c188056669"><path d="M 112.441406 0.0585938 C 50.339844 0.0585938 0 50.402344 0 112.5 C 0 174.597656 50.339844 224.941406 112.441406 224.941406 C 174.539062 224.941406 224.878906 174.597656 224.878906 112.5 C 224.878906 50.402344 174.539062 0.0585938 112.441406 0.0585938 Z M 112.441406 0.0585938 " clip-rule="nonzero"/></clipPath><clipPath id="bb590f4ac5"><path d="M 0 0.0585938 L 224.761719 0.0585938 L 224.761719 224.9375 L 0 224.9375 Z M 0 0.0585938 " clip-rule="nonzero"/></clipPath><clipPath id="4ce128aaff"><path d="M 112.441406 0.0585938 C 50.339844 0.0585938 0 50.402344 0 112.5 C 0 174.597656 50.339844 224.941406 112.441406 224.941406 C 174.539062 224.941406 224.878906 174.597656 224.878906 112.5 C 224.878906 50.402344 174.539062 0.0585938 112.441406 0.0585938 Z M 112.441406 0.0585938 " clip-rule="nonzero"/></clipPath><clipPath id="7272979b22"><rect x="0" width="225" y="0" height="225"/></clipPath><clipPath id="223f05b2f9"><path d="M 0.203125 16 L 146.761719 16 L 146.761719 122 L 0.203125 122 Z M 0.203125 16 " clip-rule="nonzero"/></clipPath><clipPath id="995f0a3da0"><rect x="0" width="147" y="0" height="142"/></clipPath><clipPath id="72770a5e7a"><path d="M 18 40 L 127 40 L 127 224.9375 L 18 224.9375 Z M 18 40 " clip-rule="nonzero"/></clipPath><clipPath id="831444b77d"><path d="M 0.230469 19 L 78 19 L 78 121 L 0.230469 121 Z M 0.230469 19 " clip-rule="nonzero"/></clipPath><clipPath id="f23b9e47b4"><rect x="0" width="109" y="0" height="185"/></clipPath></defs><g clip-path="url(#7a4676d17a)"><g clip-path="url(#c188056669)"><g transform="matrix(1, 0, 0, 1, -0, -0.000000000000031655)"><g clip-path="url(#7272979b22)"><g clip-path="url(#bb590f4ac5)"><g clip-path="url(#4ce128aaff)"><path fill="#f4efe9" d="M 0 0.0585938 L 224.878906 0.0585938 L 224.878906 224.941406 L 0 224.941406 Z M 0 0.0585938 " fill-opacity="1" fill-rule="nonzero"/></g></g></g></g><path stroke-linecap="butt" transform="matrix(0.7496, 0, 0, 0.7496, -0.000000000000102972, 0.060015)" fill="none" stroke-linejoin="miter" d="M 150.001889 -0.001896 C 67.155614 -0.001896 0.000000000000137369 67.158929 0.000000000000137369 149.999993 C 0.000000000000137369 232.841057 67.155614 300.001882 150.001889 300.001882 C 232.842953 300.001882 299.998567 232.841057 299.998567 149.999993 C 299.998567 67.158929 232.842953 -0.001896 150.001889 -0.001896 Z M 150.001889 -0.001896 " stroke="#000000" stroke-width="4" stroke-opacity="1" stroke-miterlimit="4"/></g></g><g transform="matrix(1, 0, 0, 1, 72, 50)"><g clip-path="url(#995f0a3da0)"><g clip-path="url(#223f05b2f9)"><g fill="#000000" fill-opacity="1"><g transform="translate(29.388677, 89.964677)"><g><path d="M 114.953125 -12.78125 C 115.679688 -13.382812 116.238281 -13.546875 116.625 -13.265625 C 117.007812 -12.984375 117.078125 -12.457031 116.828125 -11.6875 C 116.378906 -10.394531 115.421875 -8.617188 113.953125 -6.359375 C 112.492188 -4.097656 110.828125 -1.839844 108.953125 0.40625 C 107.085938 2.664062 105.28125 4.425781 103.53125 5.6875 C 102.257812 6.550781 100.878906 7.046875 99.390625 7.171875 C 96.691406 7.359375 95.019531 6.140625 94.375 3.515625 C 94.0625 1.953125 93.875 0.363281 93.8125 -1.25 C 93.8125 -3.03125 94.019531 -6.128906 94.4375 -10.546875 C 94.65625 -13.148438 94.859375 -15.867188 95.046875 -18.703125 C 95.242188 -21.546875 95.363281 -24.253906 95.40625 -26.828125 C 95.445312 -29.398438 95.320312 -31.539062 95.03125 -33.25 C 94.75 -34.96875 94.242188 -36.019531 93.515625 -36.40625 C 92.984375 -36.632812 92.507812 -36.601562 92.09375 -36.3125 C 91.675781 -36.03125 91.296875 -35.679688 90.953125 -35.265625 C 90.765625 -35.078125 90.59375 -34.90625 90.4375 -34.75 C 87.695312 -31.988281 85.179688 -29.015625 82.890625 -25.828125 C 79.078125 -20.523438 75.457031 -15.09375 72.03125 -9.53125 C 71.113281 -8.082031 70.117188 -6.671875 69.046875 -5.296875 C 68.054688 -4.035156 66.765625 -3.484375 65.171875 -3.640625 C 63.679688 -3.796875 62.875 -4.617188 62.75 -6.109375 C 62.71875 -7.128906 62.78125 -8.148438 62.9375 -9.171875 C 63.882812 -15.578125 64.578125 -22.410156 65.015625 -29.671875 C 65.453125 -36.929688 65.347656 -43.800781 64.703125 -50.28125 C 64.390625 -53.675781 63.78125 -55.570312 62.875 -55.96875 C 61.96875 -56.375 60.367188 -55.472656 58.078125 -53.265625 C 56.460938 -51.773438 54.988281 -50.171875 53.65625 -48.453125 C 52.320312 -46.742188 51.066406 -44.953125 49.890625 -43.078125 C 47.640625 -39.460938 45.609375 -35.75 43.796875 -31.9375 C 41.984375 -28.125 40.300781 -24.234375 38.75 -20.265625 C 36.613281 -14.773438 34.648438 -9.21875 32.859375 -3.59375 C 31.066406 2.019531 29.359375 7.644531 27.734375 13.28125 C 27.679688 13.4375 27.632812 13.570312 27.59375 13.6875 C 26.988281 15.632812 26.414062 17.578125 25.875 19.515625 C 25.269531 21.546875 24.679688 23.5625 24.109375 25.5625 C 23.890625 26.175781 23.664062 26.8125 23.4375 27.46875 C 23.25 28 23.078125 28.550781 22.921875 29.125 C 22.503906 30.375 21.644531 31.015625 20.34375 31.046875 C 19.269531 31.140625 18.515625 30.960938 18.078125 30.515625 C 17.648438 30.078125 17.503906 29.300781 17.640625 28.1875 C 17.953125 25.832031 18.300781 23.476562 18.6875 21.125 C 18.90625 19.632812 19.128906 18.144531 19.359375 16.65625 C 20.929688 6.207031 22.171875 -4.253906 23.078125 -14.734375 C 23.503906 -19.753906 23.832031 -25 24.0625 -30.46875 C 24.289062 -35.945312 24.226562 -41.390625 23.875 -46.796875 C 23.53125 -52.203125 22.71875 -57.363281 21.4375 -62.28125 C 20.96875 -64.082031 20.316406 -65.800781 19.484375 -67.4375 C 18.117188 -70.03125 15.960938 -71.234375 13.015625 -71.046875 C 11.492188 -70.859375 10.046875 -70.507812 8.671875 -70 C 5.628906 -68.976562 2.394531 -67.347656 -1.03125 -65.109375 C -4.46875 -62.878906 -7.773438 -60.222656 -10.953125 -57.140625 C -14.128906 -54.054688 -16.832031 -50.734375 -19.0625 -47.171875 C -21.300781 -43.617188 -22.753906 -39.984375 -23.421875 -36.265625 C -24.085938 -32.546875 -23.617188 -28.925781 -22.015625 -25.40625 C -20.347656 -22.070312 -17.988281 -19.328125 -14.9375 -17.171875 C -9.445312 -13.296875 -3.367188 -11.109375 3.296875 -10.609375 C 3.492188 -10.609375 3.664062 -10.609375 3.8125 -10.609375 C 4.164062 -10.609375 4.484375 -10.582031 4.765625 -10.53125 C 5.054688 -10.476562 5.332031 -10.351562 5.59375 -10.15625 C 5.707031 -10.039062 5.800781 -9.90625 5.875 -9.75 C 5.957031 -9.601562 6 -9.453125 6 -9.296875 C 6.03125 -9.210938 6 -9.113281 5.90625 -9 C 5.8125 -8.882812 5.722656 -8.796875 5.640625 -8.734375 C 5.378906 -8.546875 5.101562 -8.421875 4.8125 -8.359375 C 4.53125 -8.296875 4.234375 -8.265625 3.921875 -8.265625 C 3.847656 -8.265625 3.78125 -8.265625 3.71875 -8.265625 C 1.15625 -8.160156 -1.347656 -8.410156 -3.796875 -9.015625 C -9.265625 -10.160156 -14.253906 -12.390625 -18.765625 -15.703125 C -18.796875 -15.703125 -18.828125 -15.71875 -18.859375 -15.75 C -19.109375 -15.9375 -19.34375 -16.109375 -19.5625 -16.265625 C -23.820312 -19.691406 -26.46875 -23.484375 -27.5 -27.640625 C -28.53125 -31.804688 -28.335938 -36.054688 -26.921875 -40.390625 C -25.515625 -44.734375 -23.257812 -48.90625 -20.15625 -52.90625 C -17.0625 -56.90625 -13.5 -60.5 -9.46875 -63.6875 C -5.445312 -66.875 -1.320312 -69.375 2.90625 -71.1875 C 7.132812 -73 11.0625 -73.863281 14.6875 -73.78125 C 17.226562 -73.738281 19.335938 -73.144531 21.015625 -72 C 22.703125 -70.863281 24.019531 -69.097656 24.96875 -66.703125 C 26.5 -62.835938 27.578125 -58.535156 28.203125 -53.796875 C 28.835938 -49.066406 29.15625 -44.128906 29.15625 -38.984375 C 29.15625 -33.835938 28.972656 -28.71875 28.609375 -23.625 C 28.242188 -18.53125 27.851562 -13.738281 27.4375 -9.25 C 27.28125 -7.53125 27.144531 -5.867188 27.03125 -4.265625 C 26.988281 -3.910156 26.96875 -3.507812 26.96875 -3.0625 C 27.007812 -2.84375 27.03125 -2.578125 27.03125 -2.265625 C 27.375 -2.679688 27.640625 -3.097656 27.828125 -3.515625 C 28.015625 -3.941406 28.171875 -4.363281 28.296875 -4.78125 C 28.328125 -4.9375 28.363281 -5.09375 28.40625 -5.25 C 29.894531 -9.738281 31.472656 -14.210938 33.140625 -18.671875 C 34.816406 -23.128906 36.664062 -27.515625 38.6875 -31.828125 C 40.0625 -34.796875 41.546875 -37.695312 43.140625 -40.53125 C 44.742188 -43.375 46.535156 -46.113281 48.515625 -48.75 C 50.890625 -52.019531 53.675781 -54.878906 56.875 -57.328125 C 58.625 -58.722656 60.628906 -59.46875 62.890625 -59.5625 C 65.359375 -59.59375 67.085938 -58.519531 68.078125 -56.34375 C 68.835938 -54.625 69.332031 -52.851562 69.5625 -51.03125 C 70.257812 -45.226562 70.429688 -38.992188 70.078125 -32.328125 C 69.734375 -25.660156 69.195312 -19.445312 68.46875 -13.6875 C 68.4375 -13.625 68.4375 -13.546875 68.46875 -13.453125 C 68.507812 -13.421875 68.53125 -13.390625 68.53125 -13.359375 C 68.875 -13.285156 69.128906 -13.332031 69.296875 -13.5 C 69.472656 -13.664062 69.625 -13.882812 69.75 -14.15625 C 69.8125 -14.257812 69.863281 -14.359375 69.90625 -14.453125 C 73.070312 -19.554688 76.46875 -24.46875 80.09375 -29.1875 C 81.71875 -31.207031 83.414062 -33.1875 85.1875 -35.125 C 85.320312 -35.320312 85.484375 -35.515625 85.671875 -35.703125 C 86.816406 -37.003906 88.148438 -38.070312 89.671875 -38.90625 C 90.972656 -39.664062 92.382812 -40.046875 93.90625 -40.046875 C 95.9375 -39.972656 97.460938 -39.097656 98.484375 -37.421875 C 99.472656 -35.703125 100.09375 -33.40625 100.34375 -30.53125 C 100.59375 -27.65625 100.625 -24.507812 100.4375 -21.09375 C 100.25 -17.6875 100 -14.3125 99.6875 -10.96875 C 99.226562 -6.425781 99 -2.648438 99 0.359375 C 99.039062 1.734375 99.257812 2.570312 99.65625 2.875 C 100.050781 3.175781 100.570312 3.132812 101.21875 2.75 C 101.875 2.375 102.566406 1.832031 103.296875 1.125 C 104.441406 0.0078125 105.546875 -1.203125 106.609375 -2.515625 C 107.671875 -3.835938 108.695312 -5.164062 109.6875 -6.5 C 110.601562 -7.757812 111.5 -8.929688 112.375 -10.015625 C 113.25 -11.097656 114.109375 -12.019531 114.953125 -12.78125 Z M 114.953125 -12.78125 "/></g></g></g></g></g></g><g clip-path="url(#72770a5e7a)"><g transform="matrix(1, 0, 0, 1, 18, 40)"><g clip-path="url(#f23b9e47b4)"><g clip-path="url(#831444b77d)"><g fill="#a21a80" fill-opacity="1"><g transform="translate(26.118283, 90.658598)"><g><path d="M 5.625 16.578125 C 5.6875 16.078125 5.753906 15.597656 5.828125 15.140625 C 5.984375 14.066406 6.078125 13.019531 6.109375 12 C 6.359375 6.03125 6.578125 0.0507812 6.765625 -5.9375 C 6.796875 -7.039062 6.832031 -8.148438 6.875 -9.265625 C 6.90625 -9.785156 6.882812 -10.316406 6.8125 -10.859375 C 6.78125 -11.128906 6.628906 -11.328125 6.359375 -11.453125 C 6.085938 -11.585938 5.816406 -11.59375 5.546875 -11.46875 C 4.828125 -11.21875 4.46875 -10.726562 4.46875 -10 C 4.382812 -8.207031 4.34375 -6.4375 4.34375 -4.6875 C 4.269531 -1.125 4.289062 2.421875 4.40625 5.953125 C 4.519531 9.484375 4.925781 13.023438 5.625 16.578125 Z M 0.1875 -5.875 C 0.375 -12.175781 0.65625 -18.148438 1.03125 -23.796875 C 1.414062 -29.441406 1.851562 -34.972656 2.34375 -40.390625 C 2.34375 -40.441406 2.34375 -40.46875 2.34375 -40.46875 C 2.375 -40.882812 2.4375 -41.300781 2.53125 -41.71875 C 2.75 -42.320312 3.222656 -42.726562 3.953125 -42.9375 C 4.679688 -43.144531 5.304688 -43.054688 5.828125 -42.671875 C 5.953125 -42.566406 6.0625 -42.4375 6.15625 -42.28125 C 6.25 -42.125 6.296875 -41.972656 6.296875 -41.828125 C 6.296875 -40.992188 6.257812 -40.160156 6.1875 -39.328125 C 6.1875 -39.171875 6.1875 -39.015625 6.1875 -38.859375 C 6.03125 -36.210938 5.859375 -33.554688 5.671875 -30.890625 C 5.390625 -26.273438 5.117188 -21.644531 4.859375 -17 C 4.828125 -16.457031 4.828125 -15.898438 4.859375 -15.328125 C 4.898438 -15.097656 4.96875 -14.894531 5.0625 -14.71875 C 5.15625 -14.550781 5.34375 -14.453125 5.625 -14.421875 C 6.300781 -14.367188 6.71875 -14.65625 6.875 -15.28125 C 6.988281 -15.914062 7.019531 -16.582031 6.96875 -17.28125 C 6.96875 -18.71875 6.992188 -20.179688 7.046875 -21.671875 C 7.085938 -27.628906 7.109375 -33.582031 7.109375 -39.53125 C 7.109375 -39.914062 7.109375 -40.320312 7.109375 -40.75 C 7.109375 -42.914062 7.066406 -45.085938 6.984375 -47.265625 C 6.910156 -49.441406 6.695312 -51.597656 6.34375 -53.734375 C 6.15625 -55.003906 6.539062 -55.691406 7.5 -55.796875 C 8.914062 -56.078125 9.832031 -55.660156 10.25 -54.546875 C 10.664062 -53.210938 10.9375 -51.816406 11.0625 -50.359375 C 11.320312 -47.304688 11.476562 -44.257812 11.53125 -41.21875 C 11.59375 -38.1875 11.597656 -35.144531 11.546875 -32.09375 C 11.515625 -27.21875 11.5 -22.332031 11.5 -17.4375 C 11.46875 -16.375 11.945312 -16.007812 12.9375 -16.34375 C 13.59375 -16.53125 14.222656 -16.765625 14.828125 -17.046875 C 20.816406 -19.398438 26.367188 -22.566406 31.484375 -26.546875 C 34.660156 -29.023438 37.445312 -31.820312 39.84375 -34.9375 C 42.25 -38.050781 44.035156 -41.253906 45.203125 -44.546875 C 46.367188 -47.847656 46.703125 -51.023438 46.203125 -54.078125 C 45.710938 -57.128906 44.15625 -59.828125 41.53125 -62.171875 C 38.914062 -64.523438 35.015625 -66.328125 29.828125 -67.578125 C 27.953125 -67.960938 26.082031 -68.210938 24.21875 -68.328125 C 22.351562 -68.453125 20.46875 -68.472656 18.5625 -68.390625 C 13.664062 -68.285156 8.898438 -67.660156 4.265625 -66.515625 C -0.367188 -65.367188 -4.84375 -63.625 -9.15625 -61.28125 C -11.988281 -59.71875 -14.53125 -57.773438 -16.78125 -55.453125 C -18.226562 -54.046875 -19.347656 -52.425781 -20.140625 -50.59375 C -21.097656 -48.144531 -21.175781 -45.804688 -20.375 -43.578125 C -19.570312 -41.347656 -18.03125 -39.617188 -15.75 -38.390625 C -15.550781 -38.285156 -15.359375 -38.1875 -15.171875 -38.09375 C -14.753906 -37.90625 -14.375 -37.695312 -14.03125 -37.46875 C -13.90625 -37.363281 -13.816406 -37.222656 -13.765625 -37.046875 C -13.710938 -36.878906 -13.703125 -36.71875 -13.734375 -36.5625 C -13.773438 -36.40625 -13.847656 -36.269531 -13.953125 -36.15625 C -14.066406 -36.039062 -14.203125 -35.953125 -14.359375 -35.890625 C -15.242188 -35.609375 -16.125 -35.625 -17 -35.9375 C -19.0625 -36.507812 -20.78125 -37.566406 -22.15625 -39.109375 C -23.539062 -40.660156 -24.457031 -42.46875 -24.90625 -44.53125 C -25.351562 -46.59375 -25.238281 -48.671875 -24.5625 -50.765625 C -23.570312 -53.285156 -22.097656 -55.484375 -20.140625 -57.359375 C -18.003906 -59.492188 -15.65625 -61.320312 -13.09375 -62.84375 C -10.539062 -64.375 -7.859375 -65.648438 -5.046875 -66.671875 C 2.167969 -69.347656 9.640625 -70.84375 17.359375 -71.15625 C 19.753906 -71.257812 22.132812 -71.253906 24.5 -71.140625 C 26.863281 -71.023438 29.226562 -70.722656 31.59375 -70.234375 C 37.25 -69.003906 41.601562 -67.1875 44.65625 -64.78125 C 47.707031 -62.382812 49.660156 -59.617188 50.515625 -56.484375 C 51.378906 -53.347656 51.363281 -50.054688 50.46875 -46.609375 C 49.582031 -43.160156 48.039062 -39.75 45.84375 -36.375 C 43.644531 -33 41 -29.863281 37.90625 -26.96875 C 34.8125 -24.082031 31.507812 -21.664062 28 -19.71875 C 23.613281 -17.332031 19.035156 -15.390625 14.265625 -13.890625 C 13.847656 -13.734375 13.445312 -13.625 13.0625 -13.5625 C 12.90625 -13.507812 12.765625 -13.460938 12.640625 -13.421875 C 11.691406 -13.203125 11.21875 -12.578125 11.21875 -11.546875 C 11.1875 -10.316406 11.148438 -9.113281 11.109375 -7.9375 C 11.109375 -6.789062 11.09375 -5.660156 11.0625 -4.546875 C 11.007812 4.003906 10.53125 12.507812 9.625 20.96875 C 9.46875 23.195312 9.0625 25.375 8.40625 27.5 C 7.914062 28.75 6.988281 29.375 5.625 29.375 C 4.476562 29.425781 3.65625 28.976562 3.15625 28.03125 C 2.769531 27.207031 2.484375 26.363281 2.296875 25.5 C 1.753906 23.019531 1.335938 20.507812 1.046875 17.96875 C 0.765625 15.425781 0.546875 12.878906 0.390625 10.328125 C -0.0234375 4.066406 -0.0898438 -1.332031 0.1875 -5.875 Z M 0.1875 -5.875 "/></g></g></g></g><g fill="#a21a80" fill-opacity="1"><g transform="translate(26.118283, 165.208005)"><g/></g></g><g fill="#a21a80" fill-opacity="1"><g transform="translate(46.700961, 165.208005)"><g/></g></g><g fill="#a21a80" fill-opacity="1"><g transform="translate(67.28364, 165.208005)"><g/></g></g><g fill="#a21a80" fill-opacity="1"><g transform="translate(87.866319, 165.208005)"><g/></g></g></g></g></g><path stroke-linecap="butt" transform="matrix(0.0920222, -0.74393, 0.74393, 0.0920222, 75.490686, 111.218703)" fill="none" stroke-linejoin="miter" d="M 0.291205 2.397131 C 6.430131 0.535087 12.573777 0.536504 18.711159 2.39749 " stroke="#000000" stroke-width="2" stroke-opacity="1" stroke-miterlimit="4"/><path stroke-linecap="butt" transform="matrix(-0.0762459, -0.745712, 0.745712, -0.0762459, 74.119717, 116.095135)" fill="none" stroke-linejoin="miter" d="M 0.734942 3.691405 C 6.460335 1.437653 12.185907 1.436381 17.91631 3.693302 " stroke="#000000" stroke-width="4" stroke-opacity="1" stroke-miterlimit="4"/></svg>